<svg width="95" height="133" viewBox="0 0 95 133" fill="none" xmlns="http://www.w3.org/2000/svg">
<path d="M76.3615 76C81.6948 77.3333 92.7615 83.4 94.3615 97" stroke="#999999" stroke-dasharray="2 4"/>
<g clip-path="url(#clip0)">
<path d="M1.36389 62.9027C1.36165 62.9205 1.36026 62.9376 1.3592 62.9553C1.35766 62.9712 1.35562 62.9868 1.35526 63.0025C1.35438 63.0198 1.35518 63.037 1.35531 63.0546C1.35528 63.071 1.35543 63.0868 1.35608 63.1029C1.35706 63.1196 1.35923 63.1362 1.36089 63.1526C1.36305 63.1692 1.36454 63.1861 1.36703 63.2033C1.36938 63.2194 1.37358 63.235 1.3766 63.2507C1.38028 63.2678 1.38295 63.2846 1.38781 63.3015C1.3925 63.319 1.39837 63.3363 1.40374 63.3534C1.4083 63.368 1.41234 63.3824 1.4174 63.3972C1.42853 63.427 1.44119 63.4557 1.45453 63.4841C1.47415 63.5237 1.48918 63.5521 1.50575 63.5793C1.5142 63.5924 1.52301 63.6045 1.53164 63.6171C1.54176 63.6319 1.55171 63.6472 1.56252 63.6617C1.57332 63.6762 1.58483 63.6887 1.59598 63.7021C1.6063 63.7148 1.61612 63.7272 1.62679 63.7388C1.63879 63.7515 1.65148 63.7638 1.66384 63.7754C1.67519 63.7867 1.68637 63.7985 1.69839 63.8094C1.71093 63.8206 1.72449 63.8303 1.7372 63.841C1.75059 63.8513 1.76312 63.8624 1.77719 63.8724C1.79025 63.882 1.80434 63.8903 1.81807 63.8995C1.83232 63.909 1.84605 63.9183 1.86098 63.9274C1.87741 63.9371 1.89437 63.9452 1.91083 63.9532C1.92426 63.9601 1.9365 63.9672 1.95011 63.9736C1.98084 63.9876 2.01244 64.0008 2.04423 64.0119L50.7425 80.8969C51.2778 81.0825 51.8617 80.7988 52.0472 80.264L55.7422 69.6071L59.6175 70.9507C66.0277 73.1733 73.0515 69.7663 75.2741 63.356C76.119 60.9193 76.1703 58.272 75.4388 55.8139C77.477 54.3811 79.1003 52.3206 79.9769 49.7927C82.1995 43.3824 78.7924 36.3586 72.3821 34.136L68.5069 32.7924L72.2019 22.1355C72.3874 21.6006 72.1044 21.0164 71.569 20.8308L22.8703 3.94558C22.3349 3.75996 21.751 4.04362 21.5655 4.57848L1.41083 62.707C1.3998 62.7388 1.3903 62.7711 1.3823 62.8039C1.37874 62.8191 1.37687 62.8342 1.37382 62.8496C1.37056 62.8671 1.36663 62.885 1.36389 62.9027ZM5.05431 62.885L11.5779 59.7205L30.1977 66.1765C30.7331 66.3621 31.317 66.0785 31.5024 65.5436C31.6879 65.0087 31.4049 64.4245 30.8695 64.2389L12.2497 57.7829L9.08525 51.2593L54.4764 66.9976L52.7969 71.8417L34.7448 65.5825C34.2094 65.3969 33.6255 65.6806 33.44 66.2154C33.2546 66.7503 33.5376 67.3345 34.0729 67.5201L52.1251 73.7793L50.4455 78.6233L5.05431 62.885ZM10.1427 58.1376L4.15936 61.04L7.2403 52.1542L10.1427 58.1376ZM60.445 56.0438L64.3202 57.3874C66.0893 58.0008 67.9056 58.1846 69.6544 57.9956C69.8987 59.1006 69.835 60.2627 69.4613 61.3405C68.3499 64.5456 64.8381 66.2492 61.6329 65.1379L57.7577 63.7942L60.445 56.0438ZM60.2893 69.0131L56.4141 67.6695L57.0859 65.7318L60.9611 67.0755C65.235 68.5574 69.917 66.2862 71.3989 62.0123C71.891 60.5929 71.9791 59.0639 71.6673 57.606C72.3331 57.4186 72.9814 57.1759 73.6048 56.8811C74.0727 58.7905 73.9856 60.8121 73.3365 62.6841C71.4842 68.0262 65.6314 70.8653 60.2893 69.0131ZM71.7103 36.0736C77.0524 37.9259 79.8915 43.7788 78.0393 49.1208C76.187 54.4629 70.3341 57.302 64.9921 55.4498L56.2728 52.4266C55.7384 52.2413 55.4546 51.6562 55.6399 51.1219C55.8252 50.5875 56.4102 50.3037 56.9446 50.489L65.6639 53.5122C68.0501 54.3395 70.5637 53.9958 72.5765 52.7877C72.6301 52.7605 72.6818 52.7286 72.7309 52.6914C74.2508 51.7329 75.4687 50.2746 76.1016 48.449C77.5835 44.1752 75.3123 39.4931 71.0385 38.0112L62.3192 34.988C61.7848 34.8028 61.501 34.2177 61.6863 33.6833C61.8716 33.149 62.4567 32.8651 62.991 33.0504L71.7103 36.0736ZM66.4914 38.6052L70.3666 39.9489C73.5718 41.0602 75.2753 44.572 74.164 47.7772C73.777 48.8933 73.0985 49.8264 72.2436 50.5232C70.9529 49.2622 69.3919 48.2931 67.6793 47.6993L63.8041 46.3557L66.4914 38.6052ZM67.0075 49.6369C68.2397 50.0642 69.3781 50.7246 70.358 51.573C69.0987 52.0097 67.69 52.0441 66.3357 51.5746L62.4605 50.2309L63.1323 48.2933L67.0075 49.6369ZM69.9284 22.4325L66.5693 32.1205L63.6628 31.1128C62.0603 30.5572 60.3043 31.4089 59.7487 33.0115C59.193 34.6141 60.0448 36.37 61.6474 36.9257L64.5538 37.9334L60.5229 49.5591L57.6164 48.5514C56.0139 47.9957 54.2579 48.8475 53.7023 50.45C53.1466 52.0526 53.9984 53.8085 55.601 54.3642L58.5074 55.3719L55.1483 65.06L8.38712 48.8467L23.1673 6.21911L69.9284 22.4325Z" fill="#333333"/>
</g>
<path d="M64.1999 83.0574C73.8584 106.553 59.9277 109.56 51.7551 108.126C45.8819 104.811 36.6287 96.2458 46.601 88.5105C56.5733 80.7752 74.783 102.306 82.6413 114.038" stroke="#999999" stroke-dasharray="2 4"/>
<g filter="url(#filter0_f)">
<ellipse cx="47.3615" cy="129.5" rx="21" ry="1.5" fill="#E6E6E6"/>
</g>
<defs>
<filter id="filter0_f" x="24.3615" y="126" width="46" height="7" filterUnits="userSpaceOnUse" color-interpolation-filters="sRGB">
<feFlood flood-opacity="0" result="BackgroundImageFix"/>
<feBlend mode="normal" in="SourceGraphic" in2="BackgroundImageFix" result="shape"/>
<feGaussianBlur stdDeviation="1" result="effect1_foregroundBlur"/>
</filter>
<clipPath id="clip0">
<rect width="70" height="70" fill="white" transform="translate(89.0689 23.5702) rotate(109.123)"/>
</clipPath>
</defs>
</svg>
