<svg width="207" height="40" viewBox="0 0 207 40" fill="none" xmlns="http://www.w3.org/2000/svg">
<g clip-path="url(#clip0)">
<path d="M62.6341 19.6087C62.6341 18.706 62.6341 17.8073 62.6341 16.9047C62.6341 16.5404 62.7431 16.4256 63.1346 16.4217C64.8383 16.4217 64.8383 16.3979 64.8383 18.0924C64.8383 19.961 65.0401 20.159 66.9456 20.1471C67.8862 20.1471 68.8308 20.1471 69.7714 20.1471C70.7121 20.1471 71.1763 19.6522 71.1117 18.7377C71.0496 17.8858 70.8939 17.0429 70.6475 16.2237C70.5385 15.8555 70.6475 15.6774 71.0229 15.5586C72.6135 15.0677 72.6014 15.0558 72.9445 16.7107C73.1333 17.546 73.216 18.4011 73.1908 19.2563C73.1662 20.0449 72.8345 20.7942 72.2638 21.3502C71.6931 21.9061 70.9269 22.2265 70.1227 22.2454C68.4271 22.2454 66.7235 22.4473 65.032 22.1425C64.7535 22.091 64.7575 22.2533 64.7252 22.4394C64.261 25.3691 62.1738 27.0556 58.7142 26.8735C58.4073 26.8735 58.2459 26.7824 58.2782 26.4776C58.2782 26.4341 58.2782 26.3905 58.2782 26.347C58.2378 24.8425 58.2378 24.8425 59.7355 24.7633C61.6733 24.6525 62.4766 23.8924 62.5897 21.992C62.6341 21.2002 62.5897 20.4084 62.5897 19.6166L62.6341 19.6087Z" fill="#333333"/>
<path d="M94.0296 22.3125C92.9404 22.2346 91.866 22.0203 90.8323 21.6751C90.4286 21.5682 90.4286 21.394 90.5335 21.0495C90.9736 19.5411 90.9615 19.5372 92.4794 19.9014C93.3181 20.1448 94.195 20.236 95.0671 20.1706C96.153 20.0479 96.367 19.6282 95.7574 18.7573C94.845 17.4587 93.9407 16.1522 93.0082 14.8695C92.7377 14.4973 92.6691 14.3033 93.1455 14.0183C94.514 13.2067 94.4979 13.1829 95.3698 14.4736C96.0763 15.5108 96.7222 16.5917 97.4852 17.5933C99.0758 19.6797 97.8041 21.8215 95.5717 22.1739C95.0614 22.2541 94.5462 22.3004 94.0296 22.3125Z" fill="#333333"/>
<path d="M63.4454 10.3957C63.6906 10.4321 63.9135 10.5562 64.0711 10.7441C64.7332 11.3973 65.3872 12.0624 66.0896 12.6959C66.356 12.9413 66.3157 13.0918 66.0896 13.3095C65.2822 14.137 65.2822 14.1449 64.4223 13.3095C63.401 12.3079 63.401 12.3079 62.3756 13.3095L62.3271 13.357C61.5197 14.1488 61.2452 14.1172 60.567 13.167C60.4378 12.9849 60.4903 12.9097 60.6154 12.7711C61.3623 12.0466 62.1051 11.3142 62.8519 10.5857C62.933 10.517 63.0273 10.4648 63.1292 10.4322C63.231 10.3996 63.3385 10.3871 63.4454 10.3957Z" fill="#333333"/>
<path d="M127.589 10.3958C127.819 10.4143 128.033 10.5193 128.187 10.6888C128.885 11.3697 129.575 12.0626 130.282 12.7316C130.484 12.9256 130.5 13.0325 130.282 13.2503C129.434 14.1688 129.446 14.1767 128.57 13.3176C127.569 12.308 127.569 12.308 126.535 13.2978L126.487 13.3453C125.647 14.1688 125.445 14.1371 124.727 13.1751C124.606 13.0127 124.618 12.9336 124.751 12.8029C125.502 12.0784 126.245 11.346 126.992 10.6175C127.071 10.5427 127.164 10.4844 127.267 10.4463C127.37 10.4081 127.479 10.391 127.589 10.3958Z" fill="#333333"/>
<path d="M150.176 29.1697C149.928 29.1594 149.694 29.0559 149.522 28.8807C148.827 28.1958 148.141 27.507 147.431 26.8418C147.176 26.6043 147.253 26.4855 147.455 26.2757C148.286 25.4285 148.282 25.4205 149.126 26.2519C150.16 27.2615 150.16 27.2615 151.173 26.2717L151.221 26.2242C152.057 25.4047 152.271 25.4324 152.989 26.3945C153.123 26.5726 153.074 26.6518 152.953 26.7904C152.205 27.5136 151.462 28.2407 150.725 28.9718C150.567 29.0917 150.375 29.1608 150.176 29.1697Z" fill="#333333"/>
<path d="M9.28515 14.355C9.93511 14.355 10.5891 14.3787 11.235 14.355C11.6387 14.355 11.7154 14.4619 11.7154 14.8301C11.7073 15.9386 11.7437 15.9386 10.6335 15.9386C9.52333 15.9386 8.48179 15.9148 7.40392 15.9386C6.95985 15.9386 6.84681 15.8238 6.85489 15.3962C6.88315 14.355 6.86296 14.355 7.94891 14.355H9.28515Z" fill="#333333"/>
<path d="M20.5888 27.3962C19.9389 27.3962 19.2889 27.3725 18.643 27.3962C18.2393 27.3962 18.1626 27.2893 18.1626 26.9211C18.1626 25.8047 18.1424 25.8047 19.2526 25.8047C20.3628 25.8047 21.4043 25.8284 22.4822 25.8047C22.9263 25.8047 23.0393 25.9235 23.0312 26.3471C23.007 27.3962 23.0312 27.4002 21.9412 27.4002L20.5888 27.3962Z" fill="#333333"/>
<path d="M69.4361 27.3962C68.7862 27.3962 68.1362 27.3725 67.4863 27.3962C67.1068 27.3962 67.0059 27.2972 67.0059 26.9251C67.0059 25.8047 67.0059 25.8047 68.0958 25.8047C69.1858 25.8047 70.2476 25.8284 71.3254 25.8047C71.7655 25.8047 71.8866 25.9116 71.8745 26.3431C71.8745 27.3923 71.8745 27.3962 70.7845 27.3962H69.4361Z" fill="#333333"/>
<path d="M140.531 25.8121C141.161 25.8121 141.791 25.8359 142.417 25.8121C142.796 25.7923 142.897 25.9111 142.897 26.2833C142.897 27.4037 142.897 27.4037 141.743 27.4037C140.689 27.4037 139.635 27.3799 138.582 27.4037C138.146 27.4037 138.025 27.2968 138.033 26.8652C138.057 25.8121 138.033 25.8121 139.123 25.8121H140.531Z" fill="#333333"/>
<path d="M117.989 13.0447C117.751 13.2051 117.522 13.3782 117.303 13.5633C116.471 14.3551 116.475 14.3551 115.648 13.5633C115.038 12.9655 115.038 12.9655 115.648 12.3756C116.455 11.5838 116.455 11.5838 117.262 12.3756C117.452 12.5617 117.67 12.7477 117.989 13.0447Z" fill="#333333"/>
<path d="M30.0432 24.9927L31.4884 26.4258C31.4077 26.5209 31.3229 26.6198 31.2301 26.7149C30.0836 27.8709 30.0876 27.8669 28.9573 26.7149C28.7594 26.509 28.6706 26.3902 28.933 26.1566C29.3166 25.7845 29.6637 25.3846 30.0432 24.9927Z" fill="#333333"/>
<path fill-rule="evenodd" clip-rule="evenodd" d="M102.567 10.2972C102.556 10.1979 102.546 10.0987 102.539 10L100.509 10.004C100.318 10.5073 100.345 11.0259 100.372 11.542C100.382 11.724 100.392 11.9057 100.392 12.0864C100.401 12.9014 100.39 13.72 100.379 14.5403C100.356 16.2863 100.333 18.04 100.501 19.7828C100.63 21.113 101.32 21.8415 102.648 22.1305C103.64 22.3103 104.651 22.3583 105.656 22.273C105.734 22.2537 105.816 22.2502 105.896 22.2626C105.976 22.2751 106.053 22.3032 106.121 22.3453C106.19 22.3875 106.249 22.4428 106.295 22.5079C106.342 22.573 106.374 22.6466 106.391 22.7243C106.867 23.9497 107.703 25.0092 108.793 25.7694C109.883 26.5296 111.178 26.9565 112.515 26.9961C112.671 27.0168 112.83 27.0019 112.979 26.9526C113.383 26.7427 113.641 25.2423 113.383 24.8859C112.555 23.7457 113.112 22.463 114.521 22.3403C115.172 22.2823 115.83 22.2878 116.488 22.2934C116.683 22.2951 116.878 22.2967 117.072 22.2967C117.908 22.3435 118.737 22.1346 119.446 21.6989C119.52 21.6344 119.616 21.5987 119.715 21.5987C119.814 21.5987 119.909 21.6344 119.983 21.6989C120.661 22.137 121.466 22.3443 122.276 22.2888H132.498C132.968 22.2875 133.439 22.2624 133.907 22.2136C134.223 22.1796 134.523 22.0391 134.809 21.9048C135.055 21.7893 135.292 21.6783 135.521 21.6435C135.784 21.6038 136.043 21.7516 136.318 21.9076C136.563 22.0472 136.82 22.1933 137.1 22.2176C137.322 22.2439 137.546 22.2584 137.77 22.2611H142.271C142.607 22.2918 142.946 22.2443 143.26 22.1225C143.651 21.875 144.108 21.7463 144.574 21.7527C145.039 21.759 145.492 21.9001 145.876 22.1582C146.062 22.2361 146.265 22.2661 146.466 22.2453C147.057 22.2453 147.647 22.2475 148.238 22.2497C149.417 22.2541 150.596 22.2585 151.774 22.2453C152.631 22.2453 153.452 21.9116 154.058 21.3176C154.664 20.7236 155.004 19.9181 155.004 19.0781C154.991 18.1996 154.891 17.3245 154.705 16.4651C154.471 15.0992 154.455 15.0992 153.115 15.4951C153.008 15.5303 152.898 15.5581 152.788 15.5783C152.412 15.6297 152.331 15.8079 152.432 16.1682C152.702 17.0516 152.85 17.9663 152.872 18.888C152.876 19.7392 152.505 20.1351 151.609 20.1351C150.788 20.1542 149.986 20.156 149.168 20.1579C148.625 20.1592 148.076 20.1605 147.511 20.1668C146.094 20.1826 145.505 20.0797 145.626 18.3219V17.9933C145.626 16.3384 145.626 16.3384 143.922 16.4097C143.9 16.4137 143.876 16.4137 143.854 16.4097C143.535 16.374 143.45 16.5245 143.45 16.8333V18.6782C143.45 19.8501 143.2 20.1351 142.025 20.1549C140.616 20.1747 139.203 20.1549 137.79 20.1272C137.011 20.1114 136.652 19.763 136.652 18.9712V17.3242C136.652 16.7756 136.662 16.5404 136.552 16.4456C136.442 16.3516 136.214 16.3959 135.739 16.4097C135.493 16.4275 135.247 16.4275 135.001 16.4097C134.597 16.3622 134.423 16.4849 134.448 16.9085C134.461 17.3016 134.457 17.6965 134.452 18.092C134.45 18.2899 134.448 18.488 134.448 18.6861C134.448 19.8699 134.226 20.1589 133.035 20.1589C130.569 20.18 128.102 20.1729 125.635 20.1659C124.402 20.1624 123.169 20.1589 121.937 20.1589C121.146 20.1549 120.799 19.8026 120.799 19.0107V16.9679C120.776 16.4476 120.774 16.4475 119.409 16.4223C119.331 16.4208 119.247 16.4193 119.16 16.4176C118.667 16.4097 118.615 16.5957 118.615 16.9916V18.7692C118.61 19.8619 118.376 20.1193 117.238 20.1668C116.388 20.2183 115.536 20.2183 114.687 20.1668C112.607 20.0005 110.193 22.1027 111.356 24.8147C110.03 24.2526 108.945 23.2543 108.288 21.9919C109.679 21.7712 111.003 21.2535 112.167 20.4756C114.045 19.1256 113.77 16.1167 111.671 15.1665C111.238 14.966 110.769 14.8513 110.291 14.829C109.813 14.8067 109.336 14.8772 108.886 15.0365C108.435 15.1958 108.022 15.4407 107.668 15.7572C107.315 16.0737 107.029 16.4556 106.827 16.8808C106.629 17.3689 106.463 17.8687 106.33 18.3773C106.267 18.5867 106.269 18.835 106.271 19.0786C106.274 19.5076 106.276 19.922 105.926 20.0836C105.543 20.2603 105.055 20.2195 104.565 20.1786C104.353 20.1608 104.14 20.143 103.936 20.143H103.803C102.967 20.0876 102.652 19.8342 102.652 19.0147C102.604 16.2909 102.604 13.571 102.604 10.8472C102.604 10.6648 102.585 10.4808 102.567 10.2972ZM108.522 18.0051C108.349 18.454 108.249 18.9271 108.227 19.4066C108.226 19.4193 108.225 19.4329 108.224 19.4471C108.208 19.6022 108.185 19.8358 108.51 19.8105C109.467 19.6877 110.411 19.4898 111.146 18.8207C111.265 18.7128 111.356 18.5782 111.411 18.4284C111.466 18.2786 111.484 18.1181 111.462 17.9603C111.44 17.8026 111.38 17.6523 111.286 17.5223C111.193 17.3922 111.068 17.2863 110.924 17.2133C110.717 17.0955 110.486 17.0223 110.247 16.9987C110.009 16.9752 109.768 17.0017 109.541 17.0766C109.313 17.1516 109.105 17.2731 108.929 17.4332C108.754 17.5933 108.615 17.7883 108.522 18.0051Z" fill="#333333"/>
<path fill-rule="evenodd" clip-rule="evenodd" d="M13.1526 20.2104H7.09714H1.4494C0.0681996 20.2104 0.0680278 20.2142 0.00838222 21.5272C0.0070113 21.5574 0.00560896 21.5882 0.00415771 21.6198C-0.0241012 22.2018 0.129304 22.3601 0.730815 22.3601H13.3706C13.8641 22.3689 14.3564 22.3076 14.832 22.178C15.922 21.8534 16.1561 21.8573 17.3026 22.178C17.4742 22.2253 17.6499 22.2571 17.8274 22.273C19.3765 22.3847 20.9314 22.3966 22.4821 22.3087C22.9087 22.3219 23.3299 22.2117 23.6932 21.992C24.2422 21.596 24.6984 21.6792 25.2313 22.0157C25.8001 22.3851 26.4969 22.3597 27.1511 22.336C27.1841 22.3348 27.217 22.3336 27.2498 22.3324C27.6133 22.3186 27.9811 22.3267 28.3495 22.3347C29.564 22.3613 30.7855 22.3881 31.8882 21.6317C31.9345 21.6009 31.9901 21.5864 32.0459 21.5908C32.1017 21.5951 32.1543 21.6179 32.1951 21.6554C33.2885 22.4074 34.5049 22.3351 35.7196 22.2628C35.9311 22.2503 36.1425 22.2377 36.3532 22.2295C36.6721 22.2188 36.9739 22.085 37.1928 21.8573C37.5037 21.5287 37.7701 21.5881 38.1294 21.8019C38.9492 22.302 39.8768 22.607 40.8382 22.6927C41.4549 22.7807 42.0833 22.6478 42.6082 22.3184C43.1331 21.9891 43.5195 21.4852 43.6964 20.8993C44.1619 19.609 44.1085 18.1932 43.5471 16.9402C43.3085 16.3532 42.8951 15.8504 42.3607 15.4973C41.8264 15.1442 41.1959 14.9572 40.5516 14.9607C39.9222 14.9048 39.2903 15.0377 38.7396 15.3416C38.1889 15.6456 37.7452 16.1064 37.4674 16.6631C37.1661 17.2248 36.9318 17.8186 36.769 18.4328C36.2361 20.2579 36.2038 20.2817 34.2741 20.1589C33.4869 20.1075 33.1276 19.7907 33.1276 18.9989C33.0811 18.3637 33.0811 17.7259 33.1276 17.0907C33.2143 16.4103 32.8515 16.4182 32.43 16.4274C32.3805 16.4284 32.3303 16.4295 32.2798 16.4295C31.3858 16.4433 31.0796 16.3916 30.98 16.5115C30.9082 16.5978 30.9436 16.7732 30.9436 17.1263V18.9039C30.9436 19.8145 30.665 20.0995 29.7123 20.1589C28.7495 20.2104 27.7846 20.2104 26.8218 20.1589C25.8207 20.1075 25.5502 19.8224 25.5502 18.8129V18.021C25.5502 17.1692 25.5502 16.7406 25.3362 16.5374C25.1166 16.3288 24.6716 16.3576 23.7699 16.4097C23.4469 16.4414 23.346 16.5325 23.346 16.8373V18.8762C23.346 19.8145 23.0796 20.1035 22.1349 20.147C21.4151 20.1802 20.6977 20.1766 19.9808 20.173C19.7568 20.1719 19.5329 20.1708 19.309 20.1708C17.3632 20.1708 17.1048 19.9135 17.1048 18.0092C17.1048 17.184 17.1048 16.7693 16.8976 16.57C16.6863 16.3668 16.2594 16.3876 15.3972 16.4256C15.0581 16.4414 14.937 16.5285 14.937 16.8808V19.185C14.9542 19.3045 14.9452 19.4262 14.9107 19.542C14.8761 19.6578 14.8166 19.765 14.7364 19.8565C14.6561 19.9479 14.5568 20.0215 14.4452 20.0723C14.3336 20.1231 14.2122 20.1499 14.0892 20.151C13.7786 20.1907 13.4658 20.2106 13.1526 20.2104ZM40.3014 20.5232C41.499 20.9349 42.1086 20.5192 42.1302 19.2761C42.152 18.9669 42.1104 18.6566 42.0078 18.3635C41.9052 18.0704 41.7436 17.8005 41.5327 17.5697C41.0765 17.0709 40.2449 16.8927 39.7645 17.2174C38.9409 17.7756 38.7108 18.7139 38.5897 19.5611C38.5474 19.8599 38.9643 20.0079 39.3749 20.1536C39.552 20.2165 39.728 20.279 39.8654 20.3529C40.0047 20.4235 40.1507 20.4806 40.3014 20.5232Z" fill="#333333"/>
<path fill-rule="evenodd" clip-rule="evenodd" d="M82.5684 23.1243C82.6317 22.2718 82.6384 21.4162 82.5886 20.5629L82.6007 20.5708C82.6007 20.3068 82.6074 20.0429 82.6141 19.779C82.6276 19.2511 82.6411 18.7232 82.6007 18.1954C82.4634 16.3465 81.4017 15.1034 79.8354 14.8698C79.2876 14.776 78.7257 14.7996 78.1881 14.9388C77.6506 15.078 77.1501 15.3296 76.721 15.6764C76.2918 16.0231 75.9443 16.4568 75.7021 16.9476C75.46 17.4384 75.3289 17.9748 75.318 18.52C75.1888 20.6895 76.4726 22.1346 78.6808 22.2732C79.1033 22.3153 79.5287 22.3219 79.9524 22.293C80.4611 22.2415 80.5378 22.4671 80.4328 22.8631C80.333 23.2597 80.1233 23.6215 79.8269 23.9087C79.5306 24.1958 79.1591 24.3971 78.7535 24.4902C78.0616 24.6813 77.3446 24.7707 76.626 24.7555C76.3757 24.7515 76.2263 24.7832 76.19 25.0959C75.98 26.8023 76.2707 27.0755 77.9703 26.8023L78.4345 26.735C80.7881 26.351 82.302 25.0722 82.5684 23.1243ZM79.3429 20.1669C80.4733 20.1828 80.4733 20.1828 80.5096 19.1693C80.4976 19.0604 80.4891 18.9516 80.4806 18.843C80.4635 18.6239 80.4465 18.4059 80.4006 18.1914C80.2068 17.2769 79.7305 16.9007 78.8908 16.9483C78.5187 16.9683 78.1682 17.1263 77.9104 17.3901C77.6526 17.654 77.5066 18.0041 77.502 18.3695C77.3729 19.5929 77.9421 20.1669 79.3429 20.1669Z" fill="#333333"/>
<path fill-rule="evenodd" clip-rule="evenodd" d="M53.2305 21.8206C53.7811 22.1485 54.4164 22.3138 55.0604 22.2967C56.9779 22.2928 58.3384 21.5564 58.9036 20.3093C59.5576 18.9276 59.1942 17.6647 58.3101 16.4967C57.6062 15.6171 56.85 14.779 56.0454 13.9867C55.9432 13.881 55.8397 13.7553 55.7354 13.6286C55.4649 13.3001 55.1889 12.9648 54.915 12.9534C54.6676 12.9431 54.4082 13.207 54.1402 13.4798C53.9971 13.6254 53.8515 13.7735 53.7039 13.8838C53.3971 14.1134 53.2356 14.3193 53.6393 14.5925C53.9139 14.7785 53.821 14.9329 53.6393 15.123C53.2583 15.4959 52.9023 15.8926 52.5736 16.3107C51.6451 17.5776 51.2495 18.9791 51.9559 20.4479C52.2374 21.0161 52.68 21.4927 53.2305 21.8206ZM53.8977 18.0605C53.385 19.3037 54.0229 20.2697 55.4035 20.2697C56.8326 20.2934 57.5189 19.2007 56.8286 17.9655C56.4762 17.3849 56.0473 16.8525 55.5529 16.3819C55.4076 16.2196 55.3147 16.1998 55.1492 16.3819C54.6413 16.8706 54.2185 17.4377 53.8977 18.0605Z" fill="#333333"/>
</g>
<path fill-rule="evenodd" clip-rule="evenodd" d="M187 3.3335C177.795 3.33351 170.333 10.7954 170.333 20.0002C170.333 29.2049 177.795 36.6668 187 36.6668C196.205 36.6668 203.667 29.2049 203.667 20.0002C203.667 10.7954 196.205 3.3335 187 3.3335ZM187 6.66683C194.364 6.66683 200.333 12.6364 200.333 20.0002C200.333 27.3639 194.364 33.3335 187 33.3335C179.636 33.3335 173.667 27.3639 173.667 20.0002C173.667 12.6364 179.636 6.66684 187 6.66683ZM182 12.5001C180.619 12.5001 179.5 13.6194 179.5 15.0001C179.5 16.3808 180.619 17.5001 182 17.5001C183.381 17.5001 184.5 16.3808 184.5 15.0001C184.5 13.6194 183.381 12.5001 182 12.5001ZM193.179 16.1786L183.179 26.1786C182.528 26.8295 181.473 26.8295 180.822 26.1786C180.171 25.5278 180.171 24.4725 180.822 23.8216L190.822 13.8216C191.473 13.1708 192.528 13.1708 193.179 13.8216C193.83 14.4725 193.83 15.5278 193.179 16.1786ZM189.5 25.0001C189.5 23.6194 190.619 22.5001 192 22.5001C193.381 22.5001 194.5 23.6194 194.5 25.0001C194.5 26.3808 193.381 27.5001 192 27.5001C190.619 27.5001 189.5 26.3808 189.5 25.0001Z" fill="white"/>
<path fill-rule="evenodd" clip-rule="evenodd" d="M187 3.3335C177.795 3.33351 170.333 10.7954 170.333 20.0002C170.333 29.2049 177.795 36.6668 187 36.6668C196.205 36.6668 203.667 29.2049 203.667 20.0002C203.667 10.7954 196.205 3.3335 187 3.3335ZM187 6.66683C194.364 6.66683 200.333 12.6364 200.333 20.0002C200.333 27.3639 194.364 33.3335 187 33.3335C179.636 33.3335 173.667 27.3639 173.667 20.0002C173.667 12.6364 179.636 6.66684 187 6.66683ZM182 12.5001C180.619 12.5001 179.5 13.6194 179.5 15.0001C179.5 16.3808 180.619 17.5001 182 17.5001C183.381 17.5001 184.5 16.3808 184.5 15.0001C184.5 13.6194 183.381 12.5001 182 12.5001ZM193.179 16.1786L183.179 26.1786C182.528 26.8295 181.473 26.8295 180.822 26.1786C180.171 25.5278 180.171 24.4725 180.822 23.8216L190.822 13.8216C191.473 13.1708 192.528 13.1708 193.179 13.8216C193.83 14.4725 193.83 15.5278 193.179 16.1786ZM189.5 25.0001C189.5 23.6194 190.619 22.5001 192 22.5001C193.381 22.5001 194.5 23.6194 194.5 25.0001C194.5 26.3808 193.381 27.5001 192 27.5001C190.619 27.5001 189.5 26.3808 189.5 25.0001Z" fill="url(#paint0_linear)"/>
<defs>
<linearGradient id="paint0_linear" x1="179.813" y1="3.12516" x2="191.688" y2="36.8752" gradientUnits="userSpaceOnUse">
<stop stop-color="#FFA34F"/>
<stop offset="1" stop-color="#1B9EC8"/>
</linearGradient>
<clipPath id="clip0">
<rect width="155" height="19.1696" fill="white" transform="translate(0 10)"/>
</clipPath>
</defs>
</svg>
