<svg xmlns="http://www.w3.org/2000/svg" xmlns:xlink="http://www.w3.org/1999/xlink" width="85.6" height="24" viewBox="0 0 85.6 24"><defs><style>.a{fill:#377dff;}.b{clip-path:url(#a);}</style><clipPath id="a"><rect class="a" width="85.6" height="24" transform="translate(145 18)"/></clipPath></defs><g class="b" transform="translate(-145 -18)"><path class="a" d="M151.586,27.658c-.076.721-.149,1.366-.215,2.012-.176,1.764-.355,3.527-.523,5.291-.157,1.663-.3,3.327-.45,4.989-.043.459-.15.912-.166,1.369-.014.4-.172.507-.557.5q-2.124-.029-4.248,0c-.367,0-.457-.107-.421-.466q.35-3.363.664-6.729c.157-1.661.284-3.322.448-4.985.231-2.333.491-4.663.724-7q.2-1.992.339-3.988c.027-.383.154-.513.549-.51,2.151.018,4.3.013,6.454,0,.33,0,.478.054.556.441.788,3.874,1.614,7.739,2.412,11.612.149.73.293,1.462.464,2.187.025.107.049.232.175.236s.134-.127.156-.234l1.506-7.19q.708-3.358,1.424-6.713a.37.37,0,0,1,.43-.341q3.307.019,6.615,0c.365,0,.431.136.458.468.16,2.054.351,4.106.612,6.151.187,1.464.268,2.941.463,4.4a23.225,23.225,0,0,0,.634,4.68,4.677,4.677,0,0,0,3.719,3.165,6.228,6.228,0,0,0,1.33.113q3.817,0,7.637-.005c2.847-.007,3.431-1.383,3.775-3.333a30.94,30.94,0,0,0,.183-6.242,7.506,7.506,0,0,0-.594-2.9c-.163-.363-.072-.5.346-.491,1.524.018,3.048.015,4.572,0a.474.474,0,0,1,.546.443,22.732,22.732,0,0,1,.43,3.75,35.831,35.831,0,0,1-.228,6.03,10.274,10.274,0,0,1-1.721,4.77,6.534,6.534,0,0,1-4.41,2.482,34.137,34.137,0,0,1-6.359.3c-1.363-.005-2.726.009-4.088-.035a21.132,21.132,0,0,1-5.092-.584,7.394,7.394,0,0,1-5.315-6.2q-.387-3.355-.76-6.712a.141.141,0,0,0-.007-.054c-.039-.162.014-.418-.215-.422-.175,0-.174.228-.206.384-.171.814-.352,1.628-.522,2.443q-.851,4.088-1.7,8.177c-.162.781-.323,1.56-.469,2.345a.564.564,0,0,1-.668.554q-2.446-.045-4.894,0c-.442.007-.588-.167-.67-.553q-1.339-6.267-2.7-12.531A1.773,1.773,0,0,0,151.586,27.658Z"/><path class="a" d="M189.612,41.919a7.223,7.223,0,0,0,3.02-4.217c.127-.375.379-.362.668-.362,1.575,0,3.15,0,4.725.061a4.886,4.886,0,0,0,1.17-.107,1.8,1.8,0,0,0,1.492-1.361,5,5,0,0,0-.159-3.133,1.9,1.9,0,0,0-1.929-1.256c-1.56,0-3.119-.012-4.678.01-.387,0-.526-.073-.513-.493.037-1.123.032-2.25.013-3.373-.007-.36.115-.447.458-.443,1.4.017,2.8.011,4.2.006a2.107,2.107,0,0,0,2.163-1.169,2.781,2.781,0,0,0-.221-2.78,1.22,1.22,0,0,0-1.094-.554c-5.771.005-11.542-.028-17.318.021-1.946.016-2.971.674-3.335,3.06a22.508,22.508,0,0,0,.215,9.206c.108.417-.035.466-.4.462q-2.229-.022-4.462,0c-.341,0-.478-.068-.537-.454a30.367,30.367,0,0,1-.231-8.185,15.6,15.6,0,0,1,1.062-4.594A6.385,6.385,0,0,1,179,18.255,18.153,18.153,0,0,1,182.037,18q8.55,0,17.1.009a7.015,7.015,0,0,1,4.117,1.1,5.85,5.85,0,0,1,2.449,4.319,7.016,7.016,0,0,1-.6,3.783,3.7,3.7,0,0,1-2.125,2.064c-.122.047-.3.059-.308.238-.007.135.12.155.224.188,1.936.619,2.774,2.1,3.16,3.953a7.383,7.383,0,0,1-.746,5.251,5.55,5.55,0,0,1-4.555,2.893C197.056,42.172,193.345,41.91,189.612,41.919Z"/><path class="a" d="M207.3,29.964c0-3.75.007-7.5-.009-11.251,0-.429.072-.574.543-.573q11.1.026,22.207,0c.457,0,.565.134.554.569-.029,1.249-.026,2.5,0,3.75.009.4-.1.514-.506.509-1.792-.022-3.584.006-5.378-.02-.477-.007-.627.1-.625.605.02,5.874,0,11.749.028,17.623,0,.567-.167.667-.684.654-1.379-.035-2.76-.03-4.14,0-.438.01-.527-.136-.526-.542.012-5.894,0-11.787.022-17.676,0-.551-.142-.679-.678-.667-1.576.038-3.154.014-4.733.014-.78,0-.78,0-.78.75,0,5.821-.01,11.642.015,17.467,0,.567-.166.671-.685.657-1.38-.035-2.76-.03-4.14,0-.419.009-.5-.124-.5-.512C207.312,37.535,207.3,33.749,207.3,29.964Z"/></g></svg>